<svg width="16" height="16" viewBox="0 0 16 16" fill="none" xmlns="http://www.w3.org/2000/svg">
<path d="M8.00006 0.5C8.34524 0.5 8.62506 0.779822 8.62506 1.125V5.91667H10.7046C11.9702 5.91667 12.9963 6.94268 12.9963 8.20833V13.368L14.4334 11.9328C14.6777 11.6888 15.0734 11.6891 15.3173 11.9334C15.5612 12.1776 15.5609 12.5733 15.3167 12.8172L12.8129 15.3177C12.5688 15.5615 12.1733 15.5613 11.9293 15.3174L9.42889 12.8169C9.18482 12.5729 9.18482 12.1771 9.42889 11.9331C9.67297 11.689 10.0687 11.689 10.3128 11.9331L11.7463 13.3665V8.20833C11.7463 7.63304 11.2799 7.16667 10.7046 7.16667H5.29165C4.71635 7.16667 4.24998 7.63304 4.24998 8.20833V13.3665L5.68346 11.9331C5.92754 11.689 6.32327 11.689 6.56734 11.9331C6.81142 12.1771 6.81142 12.5729 6.56734 12.8169L4.06692 15.3174C3.82285 15.5614 3.42712 15.5614 3.18304 15.3174L0.682574 12.8169C0.438494 12.5729 0.43849 12.1771 0.682566 11.9331C0.926641 11.689 1.32237 11.689 1.56645 11.9331L2.99998 13.3666V8.20833C2.99998 6.94268 4.026 5.91667 5.29165 5.91667H7.37506V1.125C7.37506 0.779822 7.65488 0.5 8.00006 0.5Z" fill="white"/>
</svg>
