<svg width="14" height="15" viewBox="0 0 14 15" fill="none" xmlns="http://www.w3.org/2000/svg">
<path d="M4.00002 5.00017V1.16667C4.00002 0.890529 4.22388 0.666672 4.50002 0.666672C4.77616 0.666672 5.00002 0.890529 5.00002 1.16667V5.00017C5.00002 5.18426 5.14926 5.3335 5.33335 5.3335C5.51745 5.3335 5.66669 5.18426 5.66669 5.00017V1.66667C5.66669 1.39053 5.89054 1.16667 6.16669 1.16667C6.44283 1.16667 6.66669 1.39053 6.66669 1.66667V5.50001C6.66669 5.51415 6.6661 5.52815 6.66495 5.542C6.95311 5.43312 7.31394 5.3308 7.66669 5.3308C7.99991 5.3308 8.28491 5.41403 8.49617 5.52043C8.60046 5.57296 8.69747 5.63652 8.77672 5.7086C8.81567 5.74403 8.86063 5.79083 8.89973 5.84899C8.93045 5.8947 9.00002 6.00874 9.00002 6.16667C9.00002 6.33907 8.91121 6.4993 8.76502 6.59067L7.49412 7.38498L6.3889 8.64564L5.47071 9.91038C5.1258 10.3855 4.57422 10.6666 3.98713 10.6666H3.22811C2.60746 10.6666 2.01235 10.3514 1.69151 9.79257C1.49008 9.44174 1.24072 8.98076 1.04023 8.52452C0.849508 8.09048 0.666687 7.58261 0.666687 7.16664V2.50001C0.666687 2.22386 0.890545 2.00001 1.16669 2.00001C1.44283 2.00001 1.66669 2.22386 1.66669 2.50001V5.33196C1.66669 5.51605 1.81593 5.66529 2.00002 5.66529C2.18412 5.66529 2.33335 5.51605 2.33335 5.33196V1.66667C2.33335 1.39053 2.55721 1.16667 2.83335 1.16667C3.1095 1.16667 3.33335 1.39053 3.33335 1.66667V5.00017C3.33335 5.18426 3.48259 5.3335 3.66669 5.3335C3.85078 5.3335 4.00002 5.18426 4.00002 5.00017ZM8.99996 14.6667C6.86575 14.6667 5.06615 13.234 4.51044 11.278C5.10765 11.1501 5.6442 10.8061 6.01014 10.3021L6.91033 9.06211L7.93064 7.8983L9.11829 7.15602C9.45941 6.94282 9.66663 6.56894 9.66663 6.16669C9.66663 5.81248 9.51141 5.56406 9.45295 5.47709C9.42029 5.42851 9.38637 5.38501 9.35319 5.34652C11.7655 5.52706 13.6666 7.54152 13.6666 10C13.6666 12.5773 11.5773 14.6667 8.99996 14.6667ZM11 9.33335C11 8.96516 10.7015 8.66669 10.3333 8.66669C9.96511 8.66669 9.66663 8.96516 9.66663 9.33335C9.66663 9.70154 9.96511 10 10.3333 10C10.7015 10 11 9.70154 11 9.33335ZM7.0915 11.1415C6.89248 11.3329 6.88633 11.6494 7.07776 11.8484C7.56232 12.3522 8.24478 12.6667 8.99983 12.6667C9.75489 12.6667 10.4374 12.3522 10.9219 11.8484C11.1133 11.6494 11.1072 11.3329 10.9082 11.1415C10.7092 10.95 10.3926 10.9562 10.2012 11.1552C9.89736 11.4711 9.47186 11.6667 8.99983 11.6667C8.52781 11.6667 8.10231 11.4711 7.79847 11.1552C7.60704 10.9562 7.29051 10.95 7.0915 11.1415ZM8.3333 9.33335C8.3333 8.96516 8.03482 8.66669 7.66663 8.66669C7.29844 8.66669 6.99996 8.96516 6.99996 9.33335C6.99996 9.70154 7.29844 10 7.66663 10C8.03482 10 8.3333 9.70154 8.3333 9.33335Z" fill="#83A588"/>
<path d="M4.00002 5.00017V1.16667C4.00002 0.890529 4.22388 0.666672 4.50002 0.666672C4.77616 0.666672 5.00002 0.890529 5.00002 1.16667V5.00017C5.00002 5.18426 5.14926 5.3335 5.33335 5.3335C5.51745 5.3335 5.66669 5.18426 5.66669 5.00017V1.66667C5.66669 1.39053 5.89054 1.16667 6.16669 1.16667C6.44283 1.16667 6.66669 1.39053 6.66669 1.66667V5.50001C6.66669 5.51415 6.6661 5.52815 6.66495 5.542C6.95311 5.43312 7.31394 5.3308 7.66669 5.3308C7.99991 5.3308 8.28491 5.41403 8.49617 5.52043C8.60046 5.57296 8.69747 5.63652 8.77672 5.7086C8.81567 5.74403 8.86063 5.79083 8.89973 5.84899C8.93045 5.8947 9.00002 6.00874 9.00002 6.16667C9.00002 6.33907 8.91121 6.4993 8.76502 6.59067L7.49412 7.38498L6.3889 8.64564L5.47071 9.91038C5.1258 10.3855 4.57422 10.6666 3.98713 10.6666H3.22811C2.60746 10.6666 2.01235 10.3514 1.69151 9.79257C1.49008 9.44174 1.24072 8.98076 1.04023 8.52452C0.849508 8.09048 0.666687 7.58261 0.666687 7.16664V2.50001C0.666687 2.22386 0.890545 2.00001 1.16669 2.00001C1.44283 2.00001 1.66669 2.22386 1.66669 2.50001V5.33196C1.66669 5.51605 1.81593 5.66529 2.00002 5.66529C2.18412 5.66529 2.33335 5.51605 2.33335 5.33196V1.66667C2.33335 1.39053 2.55721 1.16667 2.83335 1.16667C3.1095 1.16667 3.33335 1.39053 3.33335 1.66667V5.00017C3.33335 5.18426 3.48259 5.3335 3.66669 5.3335C3.85078 5.3335 4.00002 5.18426 4.00002 5.00017ZM8.99996 14.6667C6.86575 14.6667 5.06615 13.234 4.51044 11.278C5.10765 11.1501 5.6442 10.8061 6.01014 10.3021L6.91033 9.06211L7.93064 7.8983L9.11829 7.15602C9.45941 6.94282 9.66663 6.56894 9.66663 6.16669C9.66663 5.81248 9.51141 5.56406 9.45295 5.47709C9.42029 5.42851 9.38637 5.38501 9.35319 5.34652C11.7655 5.52706 13.6666 7.54152 13.6666 10C13.6666 12.5773 11.5773 14.6667 8.99996 14.6667ZM11 9.33335C11 8.96516 10.7015 8.66669 10.3333 8.66669C9.96511 8.66669 9.66663 8.96516 9.66663 9.33335C9.66663 9.70154 9.96511 10 10.3333 10C10.7015 10 11 9.70154 11 9.33335ZM7.0915 11.1415C6.89248 11.3329 6.88633 11.6494 7.07776 11.8484C7.56232 12.3522 8.24478 12.6667 8.99983 12.6667C9.75489 12.6667 10.4374 12.3522 10.9219 11.8484C11.1133 11.6494 11.1072 11.3329 10.9082 11.1415C10.7092 10.95 10.3926 10.9562 10.2012 11.1552C9.89736 11.4711 9.47186 11.6667 8.99983 11.6667C8.52781 11.6667 8.10231 11.4711 7.79847 11.1552C7.60704 10.9562 7.29051 10.95 7.0915 11.1415ZM8.3333 9.33335C8.3333 8.96516 8.03482 8.66669 7.66663 8.66669C7.29844 8.66669 6.99996 8.96516 6.99996 9.33335C6.99996 9.70154 7.29844 10 7.66663 10C8.03482 10 8.3333 9.70154 8.3333 9.33335Z" fill="black" fill-opacity="0.7" style="mix-blend-mode:hue"/>
<path d="M4.00002 5.00017V1.16667C4.00002 0.890529 4.22388 0.666672 4.50002 0.666672C4.77616 0.666672 5.00002 0.890529 5.00002 1.16667V5.00017C5.00002 5.18426 5.14926 5.3335 5.33335 5.3335C5.51745 5.3335 5.66669 5.18426 5.66669 5.00017V1.66667C5.66669 1.39053 5.89054 1.16667 6.16669 1.16667C6.44283 1.16667 6.66669 1.39053 6.66669 1.66667V5.50001C6.66669 5.51415 6.6661 5.52815 6.66495 5.542C6.95311 5.43312 7.31394 5.3308 7.66669 5.3308C7.99991 5.3308 8.28491 5.41403 8.49617 5.52043C8.60046 5.57296 8.69747 5.63652 8.77672 5.7086C8.81567 5.74403 8.86063 5.79083 8.89973 5.84899C8.93045 5.8947 9.00002 6.00874 9.00002 6.16667C9.00002 6.33907 8.91121 6.4993 8.76502 6.59067L7.49412 7.38498L6.3889 8.64564L5.47071 9.91038C5.1258 10.3855 4.57422 10.6666 3.98713 10.6666H3.22811C2.60746 10.6666 2.01235 10.3514 1.69151 9.79257C1.49008 9.44174 1.24072 8.98076 1.04023 8.52452C0.849508 8.09048 0.666687 7.58261 0.666687 7.16664V2.50001C0.666687 2.22386 0.890545 2.00001 1.16669 2.00001C1.44283 2.00001 1.66669 2.22386 1.66669 2.50001V5.33196C1.66669 5.51605 1.81593 5.66529 2.00002 5.66529C2.18412 5.66529 2.33335 5.51605 2.33335 5.33196V1.66667C2.33335 1.39053 2.55721 1.16667 2.83335 1.16667C3.1095 1.16667 3.33335 1.39053 3.33335 1.66667V5.00017C3.33335 5.18426 3.48259 5.3335 3.66669 5.3335C3.85078 5.3335 4.00002 5.18426 4.00002 5.00017ZM8.99996 14.6667C6.86575 14.6667 5.06615 13.234 4.51044 11.278C5.10765 11.1501 5.6442 10.8061 6.01014 10.3021L6.91033 9.06211L7.93064 7.8983L9.11829 7.15602C9.45941 6.94282 9.66663 6.56894 9.66663 6.16669C9.66663 5.81248 9.51141 5.56406 9.45295 5.47709C9.42029 5.42851 9.38637 5.38501 9.35319 5.34652C11.7655 5.52706 13.6666 7.54152 13.6666 10C13.6666 12.5773 11.5773 14.6667 8.99996 14.6667ZM11 9.33335C11 8.96516 10.7015 8.66669 10.3333 8.66669C9.96511 8.66669 9.66663 8.96516 9.66663 9.33335C9.66663 9.70154 9.96511 10 10.3333 10C10.7015 10 11 9.70154 11 9.33335ZM7.0915 11.1415C6.89248 11.3329 6.88633 11.6494 7.07776 11.8484C7.56232 12.3522 8.24478 12.6667 8.99983 12.6667C9.75489 12.6667 10.4374 12.3522 10.9219 11.8484C11.1133 11.6494 11.1072 11.3329 10.9082 11.1415C10.7092 10.95 10.3926 10.9562 10.2012 11.1552C9.89736 11.4711 9.47186 11.6667 8.99983 11.6667C8.52781 11.6667 8.10231 11.4711 7.79847 11.1552C7.60704 10.9562 7.29051 10.95 7.0915 11.1415ZM8.3333 9.33335C8.3333 8.96516 8.03482 8.66669 7.66663 8.66669C7.29844 8.66669 6.99996 8.96516 6.99996 9.33335C6.99996 9.70154 7.29844 10 7.66663 10C8.03482 10 8.3333 9.70154 8.3333 9.33335Z" fill="white" fill-opacity="0.16"/>
</svg>
