<svg width="12" height="12" viewBox="0 0 12 12" fill="none" xmlns="http://www.w3.org/2000/svg">
<path d="M12 3.66667V9.83333C12 11.03 11.03 12 9.83333 12H2.16667C0.97005 12 0 11.03 0 9.83333V3.66667H12ZM2.83333 8C2.3731 8 2 8.3731 2 8.83333C2 9.29357 2.3731 9.66667 2.83333 9.66667C3.29357 9.66667 3.66667 9.29357 3.66667 8.83333C3.66667 8.3731 3.29357 8 2.83333 8ZM6 8C5.53976 8 5.16667 8.3731 5.16667 8.83333C5.16667 9.29357 5.53976 9.66667 6 9.66667C6.46024 9.66667 6.83333 9.29357 6.83333 8.83333C6.83333 8.3731 6.46024 8 6 8ZM2.83333 5C2.3731 5 2 5.3731 2 5.83333C2 6.29357 2.3731 6.66667 2.83333 6.66667C3.29357 6.66667 3.66667 6.29357 3.66667 5.83333C3.66667 5.3731 3.29357 5 2.83333 5ZM6 5C5.53976 5 5.16667 5.3731 5.16667 5.83333C5.16667 6.29357 5.53976 6.66667 6 6.66667C6.46024 6.66667 6.83333 6.29357 6.83333 5.83333C6.83333 5.3731 6.46024 5 6 5ZM9.16667 5C8.70643 5 8.33333 5.3731 8.33333 5.83333C8.33333 6.29357 8.70643 6.66667 9.16667 6.66667C9.6269 6.66667 10 6.29357 10 5.83333C10 5.3731 9.6269 5 9.16667 5ZM9.83333 0C11.03 0 12 0.97005 12 2.16667V2.66667H0V2.16667C0 0.97005 0.97005 0 2.16667 0H9.83333Z" fill="#AFAFAF"/>
<path d="M12 3.66667V9.83333C12 11.03 11.03 12 9.83333 12H2.16667C0.97005 12 0 11.03 0 9.83333V3.66667H12ZM2.83333 8C2.3731 8 2 8.3731 2 8.83333C2 9.29357 2.3731 9.66667 2.83333 9.66667C3.29357 9.66667 3.66667 9.29357 3.66667 8.83333C3.66667 8.3731 3.29357 8 2.83333 8ZM6 8C5.53976 8 5.16667 8.3731 5.16667 8.83333C5.16667 9.29357 5.53976 9.66667 6 9.66667C6.46024 9.66667 6.83333 9.29357 6.83333 8.83333C6.83333 8.3731 6.46024 8 6 8ZM2.83333 5C2.3731 5 2 5.3731 2 5.83333C2 6.29357 2.3731 6.66667 2.83333 6.66667C3.29357 6.66667 3.66667 6.29357 3.66667 5.83333C3.66667 5.3731 3.29357 5 2.83333 5ZM6 5C5.53976 5 5.16667 5.3731 5.16667 5.83333C5.16667 6.29357 5.53976 6.66667 6 6.66667C6.46024 6.66667 6.83333 6.29357 6.83333 5.83333C6.83333 5.3731 6.46024 5 6 5ZM9.16667 5C8.70643 5 8.33333 5.3731 8.33333 5.83333C8.33333 6.29357 8.70643 6.66667 9.16667 6.66667C9.6269 6.66667 10 6.29357 10 5.83333C10 5.3731 9.6269 5 9.16667 5ZM9.83333 0C11.03 0 12 0.97005 12 2.16667V2.66667H0V2.16667C0 0.97005 0.97005 0 2.16667 0H9.83333Z" fill="black" fill-opacity="0.7" style="mix-blend-mode:hue"/>
<path d="M12 3.66667V9.83333C12 11.03 11.03 12 9.83333 12H2.16667C0.97005 12 0 11.03 0 9.83333V3.66667H12ZM2.83333 8C2.3731 8 2 8.3731 2 8.83333C2 9.29357 2.3731 9.66667 2.83333 9.66667C3.29357 9.66667 3.66667 9.29357 3.66667 8.83333C3.66667 8.3731 3.29357 8 2.83333 8ZM6 8C5.53976 8 5.16667 8.3731 5.16667 8.83333C5.16667 9.29357 5.53976 9.66667 6 9.66667C6.46024 9.66667 6.83333 9.29357 6.83333 8.83333C6.83333 8.3731 6.46024 8 6 8ZM2.83333 5C2.3731 5 2 5.3731 2 5.83333C2 6.29357 2.3731 6.66667 2.83333 6.66667C3.29357 6.66667 3.66667 6.29357 3.66667 5.83333C3.66667 5.3731 3.29357 5 2.83333 5ZM6 5C5.53976 5 5.16667 5.3731 5.16667 5.83333C5.16667 6.29357 5.53976 6.66667 6 6.66667C6.46024 6.66667 6.83333 6.29357 6.83333 5.83333C6.83333 5.3731 6.46024 5 6 5ZM9.16667 5C8.70643 5 8.33333 5.3731 8.33333 5.83333C8.33333 6.29357 8.70643 6.66667 9.16667 6.66667C9.6269 6.66667 10 6.29357 10 5.83333C10 5.3731 9.6269 5 9.16667 5ZM9.83333 0C11.03 0 12 0.97005 12 2.16667V2.66667H0V2.16667C0 0.97005 0.97005 0 2.16667 0H9.83333Z" fill="white" fill-opacity="0.16"/>
</svg>
