<svg width="14" height="16" viewBox="0 0 14 16" fill="none" xmlns="http://www.w3.org/2000/svg">
<path d="M8.0164 3.65096C7.79451 3.42907 7.77434 3.08185 7.95589 2.83717L8.0164 2.76708L9.98926 0.791988C10.094 0.61834 10.3024 0.5 10.5424 0.5C10.7525 0.5 10.9384 0.590718 11.0517 0.729818L11.0956 0.792271L13.0683 2.76708L13.1288 2.83717C13.2902 3.05466 13.2922 3.35318 13.1348 3.57267L13.0683 3.65096L12.9982 3.71147C12.7807 3.87285 12.4822 3.87484 12.2627 3.71745L12.1844 3.65096L11.1667 2.63333V5.78653L11.161 5.86073C11.1195 6.12766 10.858 6.33333 10.5416 6.33333C10.2252 6.33333 9.96372 6.12754 9.92237 5.8606L9.91668 5.78639V2.63333L8.90029 3.65096L8.83019 3.71147C8.58551 3.89302 8.23829 3.87285 8.0164 3.65096ZM8.01883 12.349C8.24072 12.1272 8.58794 12.107 8.83262 12.2885L8.90272 12.349L9.91911 13.3667V10.2136C9.91907 9.91158 10.1989 9.66667 10.544 9.66667C10.8604 9.66667 11.122 9.87234 11.1634 10.1393L11.1691 10.2135V13.3667L12.1869 12.349C12.4088 12.1272 12.756 12.107 13.0007 12.2885L13.0708 12.349C13.2926 12.5709 13.3128 12.9181 13.1313 13.1628L13.0708 13.2329L11.0981 15.2077C10.9934 15.3815 10.785 15.5 10.5449 15.5C10.3049 15.5 10.0964 15.3817 9.99169 15.208L8.01883 13.2329C7.77476 12.9888 7.77476 12.5931 8.01883 12.349ZM2.20834 1.32682C1.17281 1.32682 0.333344 2.16629 0.333344 3.20182V12.7852C0.333344 13.8207 1.17281 14.6602 2.20834 14.6602H5.54168C5.88686 14.6602 6.16668 14.3803 6.16668 14.0352C6.16668 13.69 5.88686 13.4102 5.54168 13.4102H2.20834C1.86317 13.4102 1.58334 13.1303 1.58334 12.7852V3.20182C1.58334 2.85664 1.86317 2.57682 2.20834 2.57682H5.54168C5.88686 2.57682 6.16668 2.297 6.16668 1.95182C6.16668 1.60664 5.88686 1.32682 5.54168 1.32682H2.20834Z" fill="#121212"/>
</svg>
