<svg width="14" height="4" viewBox="0 0 14 4" fill="none" xmlns="http://www.w3.org/2000/svg">
<path d="M3.45832 2C3.45832 2.80542 2.80541 3.45833 1.99999 3.45833C1.19457 3.45833 0.541656 2.80542 0.541656 2C0.541656 1.19459 1.19457 0.541668 1.99999 0.541668C2.80541 0.541668 3.45832 1.19459 3.45832 2ZM8.45832 2C8.45832 2.80542 7.80541 3.45833 6.99999 3.45833C6.19457 3.45833 5.54166 2.80542 5.54166 2C5.54166 1.19459 6.19457 0.541668 6.99999 0.541668C7.80541 0.541668 8.45832 1.19459 8.45832 2ZM12 3.45833C12.8054 3.45833 13.4583 2.80542 13.4583 2C13.4583 1.19459 12.8054 0.541668 12 0.541668C11.1946 0.541668 10.5417 1.19459 10.5417 2C10.5417 2.80542 11.1946 3.45833 12 3.45833Z" fill="#AFAFAF"/>
</svg>
