<svg width="14" height="10" viewBox="0 0 14 10" fill="none" xmlns="http://www.w3.org/2000/svg">
<path d="M8.25 8.33333C8.59518 8.33333 8.875 8.61316 8.875 8.95833C8.875 9.30351 8.59518 9.58333 8.25 9.58333H5.75C5.40482 9.58333 5.125 9.30351 5.125 8.95833C5.125 8.61316 5.40482 8.33333 5.75 8.33333H8.25ZM10.75 4.16667C11.0952 4.16667 11.375 4.44649 11.375 4.79167C11.375 5.13684 11.0952 5.41667 10.75 5.41667H3.25C2.90482 5.41667 2.625 5.13684 2.625 4.79167C2.625 4.44649 2.90482 4.16667 3.25 4.16667H10.75ZM13.25 0C13.5952 0 13.875 0.279822 13.875 0.625C13.875 0.970178 13.5952 1.25 13.25 1.25H0.75C0.404822 1.25 0.125 0.970178 0.125 0.625C0.125 0.279822 0.404822 0 0.75 0H13.25Z" fill="#121212"/>
</svg>
