<svg width="13" height="18" viewBox="0 0 13 18" fill="none" xmlns="http://www.w3.org/2000/svg">
<path d="M12.2082 16.0833C12.5533 16.0832 12.8333 16.363 12.8333 16.7082C12.8333 17.0533 12.5537 17.3332 12.2085 17.3333L1.37518 17.3365C1.03 17.3366 0.75 17.0568 0.75 16.7117C0.75 16.3665 1.02964 16.0866 1.37482 16.0865L12.2082 16.0833ZM6.70686 0.676497L6.79167 0.670792C7.10808 0.670792 7.36958 0.90592 7.41096 1.21098L7.41667 1.29579L7.41583 12.7L10.5173 9.59968C10.7393 9.37782 11.0865 9.35768 11.3311 9.53925L11.4012 9.59977C11.6231 9.82169 11.6432 10.1689 11.4617 10.4136L11.4011 10.4837L7.23643 14.6475C7.01465 14.8692 6.66766 14.8895 6.423 14.7082L6.3529 14.6478L2.18336 10.4839C1.93912 10.24 1.93885 9.84428 2.18276 9.60003C2.40449 9.37799 2.7517 9.35758 2.9965 9.53896L3.06664 9.59943L6.16583 12.6941L6.16667 1.29579C6.16667 0.979378 6.40179 0.717883 6.70686 0.676497L6.79167 0.670792L6.70686 0.676497Z" fill="#545454"/>
</svg>
