<svg width="12" height="13" viewBox="0 0 12 13" fill="none" xmlns="http://www.w3.org/2000/svg">
<path d="M4.83333 1.33333H7.16667C7.44281 1.33333 7.66667 1.55719 7.66667 1.83333V2.99999H4.33333V1.83333C4.33333 1.55719 4.55719 1.33333 4.83333 1.33333ZM3.33333 1.83333V2.99999H2.16667C0.97005 2.99999 0 3.97004 0 5.16666V6.16666C0 6.81099 0.522334 7.33333 1.16667 7.33333H4.66667V7C4.66667 6.63181 4.96514 6.33333 5.33333 6.33333H6.66667C7.03486 6.33333 7.33333 6.6318 7.33333 7V7.33333H10.8333C11.4777 7.33333 12 6.81099 12 6.16666V5.16666C12 3.97004 11.03 2.99999 9.83333 2.99999H8.66667V1.83333C8.66667 1.0049 7.99509 0.333328 7.16667 0.333328H4.83333C4.00491 0.333328 3.33333 1.0049 3.33333 1.83333ZM12 7.99272C11.6632 8.20833 11.2629 8.33333 10.8333 8.33333H7.33333C7.33333 8.70152 7.03486 9 6.66667 9H5.33333C4.96514 9 4.66667 8.70152 4.66667 8.33333H1.16667C0.737119 8.33333 0.336767 8.20833 0 7.99272V10.1667C0 11.3633 0.970049 12.3333 2.16667 12.3333H9.83333C11.03 12.3333 12 11.3633 12 10.1667V7.99272Z" fill="#AFAFAF"/>
<path d="M4.83333 1.33333H7.16667C7.44281 1.33333 7.66667 1.55719 7.66667 1.83333V2.99999H4.33333V1.83333C4.33333 1.55719 4.55719 1.33333 4.83333 1.33333ZM3.33333 1.83333V2.99999H2.16667C0.97005 2.99999 0 3.97004 0 5.16666V6.16666C0 6.81099 0.522334 7.33333 1.16667 7.33333H4.66667V7C4.66667 6.63181 4.96514 6.33333 5.33333 6.33333H6.66667C7.03486 6.33333 7.33333 6.6318 7.33333 7V7.33333H10.8333C11.4777 7.33333 12 6.81099 12 6.16666V5.16666C12 3.97004 11.03 2.99999 9.83333 2.99999H8.66667V1.83333C8.66667 1.0049 7.99509 0.333328 7.16667 0.333328H4.83333C4.00491 0.333328 3.33333 1.0049 3.33333 1.83333ZM12 7.99272C11.6632 8.20833 11.2629 8.33333 10.8333 8.33333H7.33333C7.33333 8.70152 7.03486 9 6.66667 9H5.33333C4.96514 9 4.66667 8.70152 4.66667 8.33333H1.16667C0.737119 8.33333 0.336767 8.20833 0 7.99272V10.1667C0 11.3633 0.970049 12.3333 2.16667 12.3333H9.83333C11.03 12.3333 12 11.3633 12 10.1667V7.99272Z" fill="black" fill-opacity="0.7" style="mix-blend-mode:hue"/>
<path d="M4.83333 1.33333H7.16667C7.44281 1.33333 7.66667 1.55719 7.66667 1.83333V2.99999H4.33333V1.83333C4.33333 1.55719 4.55719 1.33333 4.83333 1.33333ZM3.33333 1.83333V2.99999H2.16667C0.97005 2.99999 0 3.97004 0 5.16666V6.16666C0 6.81099 0.522334 7.33333 1.16667 7.33333H4.66667V7C4.66667 6.63181 4.96514 6.33333 5.33333 6.33333H6.66667C7.03486 6.33333 7.33333 6.6318 7.33333 7V7.33333H10.8333C11.4777 7.33333 12 6.81099 12 6.16666V5.16666C12 3.97004 11.03 2.99999 9.83333 2.99999H8.66667V1.83333C8.66667 1.0049 7.99509 0.333328 7.16667 0.333328H4.83333C4.00491 0.333328 3.33333 1.0049 3.33333 1.83333ZM12 7.99272C11.6632 8.20833 11.2629 8.33333 10.8333 8.33333H7.33333C7.33333 8.70152 7.03486 9 6.66667 9H5.33333C4.96514 9 4.66667 8.70152 4.66667 8.33333H1.16667C0.737119 8.33333 0.336767 8.20833 0 7.99272V10.1667C0 11.3633 0.970049 12.3333 2.16667 12.3333H9.83333C11.03 12.3333 12 11.3633 12 10.1667V7.99272Z" fill="white" fill-opacity="0.16"/>
</svg>
