<svg width="17" height="16" viewBox="0 0 17 16" fill="none" xmlns="http://www.w3.org/2000/svg">
<path d="M3.62231 1.33333H6.50915C6.85433 1.33333 7.13415 1.61316 7.13415 1.95833C7.13415 2.27475 6.89902 2.53624 6.59396 2.57763L6.50915 2.58333H3.62231C2.62993 2.58333 1.81761 3.3543 1.75164 4.32996L1.74731 4.45833V12.375C1.74731 13.3674 2.51828 14.1797 3.49394 14.2457L3.62231 14.25H11.5396C12.532 14.25 13.3443 13.479 13.4103 12.5034L13.4146 12.375V11.9602C13.4146 11.615 13.6944 11.3352 14.0396 11.3352C14.356 11.3352 14.6175 11.5703 14.6589 11.8754L14.6646 11.9602V12.375C14.6646 14.0452 13.3543 15.4094 11.7056 15.4957L11.5396 15.5H3.62231C1.9521 15.5 0.58792 14.1897 0.501646 12.541L0.497314 12.375V4.45833C0.497314 2.78812 1.80762 1.42394 3.45635 1.33767L3.62231 1.33333H6.50915H3.62231ZM10.084 3.43321V1.125C10.084 0.605026 10.673 0.324957 11.0731 0.616503L11.1416 0.673953L16.1371 5.46562C16.3703 5.68924 16.3915 6.04843 16.2008 6.29673L16.1372 6.36765L11.1417 11.1609C10.7665 11.5209 10.1565 11.2897 10.0899 10.7991L10.084 10.7099V8.43878L9.79773 8.46387C7.79799 8.67247 5.88129 9.57321 4.0356 11.1811C3.60301 11.558 2.93374 11.2017 3.00488 10.6324C3.55888 6.19942 5.8771 3.75608 9.8345 3.44959L10.084 3.43321V1.125V3.43321ZM11.334 2.59054V4.04167C11.334 4.38685 11.0542 4.66667 10.709 4.66667C7.48114 4.66667 5.48062 6.06344 4.61625 8.96432L4.55037 9.19646L4.84386 8.99911C6.7076 7.781 8.66544 7.16667 10.709 7.16667C11.0254 7.16667 11.2869 7.4018 11.3283 7.70686L11.334 7.79167V9.24402L14.8017 5.91674L11.334 2.59054Z" fill="#545454"/>
</svg>
