<svg width="18" height="14" viewBox="0 0 18 14" fill="none" xmlns="http://www.w3.org/2000/svg">
<path d="M13.3757 0.333336L13.2909 0.339042C12.9858 0.380427 12.7507 0.641923 12.7507 0.958336L12.75 11.535L10.0668 8.85366L9.99663 8.79318C9.75188 8.61174 9.40467 8.63205 9.18287 8.85403C8.9389 9.09821 8.93906 9.49394 9.18324 9.73792L12.9364 13.4879L13.0065 13.5484C13.2513 13.7298 13.5985 13.7095 13.8203 13.4875L17.5671 9.73755L17.6276 9.66742C17.8091 9.42267 17.7887 9.07546 17.5668 8.85366L17.4966 8.79318C17.2519 8.61174 16.9047 8.63205 16.6829 8.85403L14 11.5383L14.0007 0.958336L13.995 0.873527C13.9536 0.568464 13.6921 0.333336 13.3757 0.333336ZM4.17868 0.516409L0.433044 4.26229L0.372531 4.33239C0.190994 4.57707 0.211177 4.92429 0.433073 5.14617L0.503173 5.20668C0.747855 5.38822 1.09507 5.36804 1.31696 5.14614L3.9975 2.46426L3.99805 13.0458L4.00376 13.1306C4.04514 13.4357 4.30664 13.6708 4.62305 13.6708L4.70786 13.6651C5.01292 13.6237 5.24805 13.3622 5.24805 13.0458L5.2475 2.46593L7.93322 5.14664L8.00338 5.20708C8.24826 5.38835 8.59545 5.36781 8.8171 5.14567C9.06091 4.90133 9.06048 4.5056 8.81614 4.26179L5.06209 0.515913L4.99198 0.455515C4.7473 0.274338 4.40039 0.294678 4.17868 0.516409Z" fill="#121212"/>
</svg>
