<svg width="14" height="14" viewBox="0 0 14 14" fill="none" xmlns="http://www.w3.org/2000/svg">
<path d="M7.00001 0.333328C10.6819 0.333328 13.6667 3.3181 13.6667 7C13.6667 10.6819 10.6819 13.6667 7.00001 13.6667C3.31811 13.6667 0.333344 10.6819 0.333344 7C0.333344 3.3181 3.31811 0.333328 7.00001 0.333328ZM3.97979 5.64644C3.78453 5.8417 3.78453 6.15829 3.97979 6.35355L6.64646 9.02022C6.84172 9.21548 7.1583 9.21548 7.35356 9.02022L10.0202 6.35355C10.2155 6.15829 10.2155 5.8417 10.0202 5.64644C9.82497 5.45118 9.50839 5.45118 9.31312 5.64644L7.00001 7.95955L4.6869 5.64644C4.49163 5.45118 4.17505 5.45118 3.97979 5.64644Z" fill="#AFAFAF"/>
<path d="M7.00001 0.333328C10.6819 0.333328 13.6667 3.3181 13.6667 7C13.6667 10.6819 10.6819 13.6667 7.00001 13.6667C3.31811 13.6667 0.333344 10.6819 0.333344 7C0.333344 3.3181 3.31811 0.333328 7.00001 0.333328ZM3.97979 5.64644C3.78453 5.8417 3.78453 6.15829 3.97979 6.35355L6.64646 9.02022C6.84172 9.21548 7.1583 9.21548 7.35356 9.02022L10.0202 6.35355C10.2155 6.15829 10.2155 5.8417 10.0202 5.64644C9.82497 5.45118 9.50839 5.45118 9.31312 5.64644L7.00001 7.95955L4.6869 5.64644C4.49163 5.45118 4.17505 5.45118 3.97979 5.64644Z" fill="black" fill-opacity="0.7" style="mix-blend-mode:hue"/>
<path d="M7.00001 0.333328C10.6819 0.333328 13.6667 3.3181 13.6667 7C13.6667 10.6819 10.6819 13.6667 7.00001 13.6667C3.31811 13.6667 0.333344 10.6819 0.333344 7C0.333344 3.3181 3.31811 0.333328 7.00001 0.333328ZM3.97979 5.64644C3.78453 5.8417 3.78453 6.15829 3.97979 6.35355L6.64646 9.02022C6.84172 9.21548 7.1583 9.21548 7.35356 9.02022L10.0202 6.35355C10.2155 6.15829 10.2155 5.8417 10.0202 5.64644C9.82497 5.45118 9.50839 5.45118 9.31312 5.64644L7.00001 7.95955L4.6869 5.64644C4.49163 5.45118 4.17505 5.45118 3.97979 5.64644Z" fill="white" fill-opacity="0.16"/>
</svg>
