<svg width="12" height="14" viewBox="0 0 12 14" fill="none" xmlns="http://www.w3.org/2000/svg">
<path d="M9.8361 8.33327C10.6641 8.33327 11.3353 9.00451 11.3353 9.83253V10.4448C11.3353 10.8271 11.2159 11.1998 10.9936 11.5108C9.96303 12.9529 8.28017 13.6674 5.99998 13.6674C3.71933 13.6674 2.03736 12.9526 1.00925 11.5097C0.787943 11.1991 0.669006 10.8272 0.669006 10.4458V9.83253C0.669006 9.00451 1.34024 8.33327 2.16826 8.33327H9.8361ZM5.99998 0.336411C7.84093 0.336411 9.33331 1.82879 9.33331 3.66974C9.33331 5.51069 7.84093 7.00308 5.99998 7.00308C4.15903 7.00308 2.66665 5.51069 2.66665 3.66974C2.66665 1.82879 4.15903 0.336411 5.99998 0.336411Z" fill="#AFAFAF"/>
<path d="M9.8361 8.33327C10.6641 8.33327 11.3353 9.00451 11.3353 9.83253V10.4448C11.3353 10.8271 11.2159 11.1998 10.9936 11.5108C9.96303 12.9529 8.28017 13.6674 5.99998 13.6674C3.71933 13.6674 2.03736 12.9526 1.00925 11.5097C0.787943 11.1991 0.669006 10.8272 0.669006 10.4458V9.83253C0.669006 9.00451 1.34024 8.33327 2.16826 8.33327H9.8361ZM5.99998 0.336411C7.84093 0.336411 9.33331 1.82879 9.33331 3.66974C9.33331 5.51069 7.84093 7.00308 5.99998 7.00308C4.15903 7.00308 2.66665 5.51069 2.66665 3.66974C2.66665 1.82879 4.15903 0.336411 5.99998 0.336411Z" fill="black" fill-opacity="0.7" style="mix-blend-mode:hue"/>
<path d="M9.8361 8.33327C10.6641 8.33327 11.3353 9.00451 11.3353 9.83253V10.4448C11.3353 10.8271 11.2159 11.1998 10.9936 11.5108C9.96303 12.9529 8.28017 13.6674 5.99998 13.6674C3.71933 13.6674 2.03736 12.9526 1.00925 11.5097C0.787943 11.1991 0.669006 10.8272 0.669006 10.4458V9.83253C0.669006 9.00451 1.34024 8.33327 2.16826 8.33327H9.8361ZM5.99998 0.336411C7.84093 0.336411 9.33331 1.82879 9.33331 3.66974C9.33331 5.51069 7.84093 7.00308 5.99998 7.00308C4.15903 7.00308 2.66665 5.51069 2.66665 3.66974C2.66665 1.82879 4.15903 0.336411 5.99998 0.336411Z" fill="white" fill-opacity="0.16"/>
</svg>
